<?xml version="1.0" encoding="UTF-8"?>
<svg width="32.386mm" height="10.139mm" version="1.1" viewBox="0 0 32.386 10.139" xmlns="http://www.w3.org/2000/svg" xmlns:cc="http://creativecommons.org/ns#" xmlns:dc="http://purl.org/dc/elements/1.1/" xmlns:rdf="http://www.w3.org/1999/02/22-rdf-syntax-ns#" xmlns:xlink="http://www.w3.org/1999/xlink">
 <defs>
  <linearGradient id="linearGradient873" x1="20.024" x2="41.497" y1="22.634" y2="22.666" gradientTransform="translate(-16.032 -15.264)" gradientUnits="userSpaceOnUse">
   <stop stop-color="#358ac7" offset="0"/>
   <stop stop-color="#c6358a" offset="1"/>
  </linearGradient>
 </defs>
 <metadata>
  <rdf:RDF>
   <cc:Work rdf:about="">
    <dc:format>image/svg+xml</dc:format>
    <dc:type rdf:resource="http://purl.org/dc/dcmitype/StillImage"/>
   </cc:Work>
  </rdf:RDF>
 </metadata>
 <g>
  <text fill="#ffffff" font-family="'Times New Roman'" font-size="10.583px" letter-spacing=".98954px" word-spacing="0px" style="line-height:1.25;shape-inside:url(#rect837);white-space:pre" xml:space="preserve"/>
  <g fill="url(#linearGradient873)" stroke-width=".265" aria-label="magical">
   <path d="m0.90433 2.3461 0.025838 0.62012q0.61495-0.72347 1.6588-0.72347 1.1731 0 1.5968 0.89917 0.27905-0.40307 0.72347-0.65112 0.44958-0.24805 1.0594-0.24805 1.8397 0 1.8707 1.9482v3.7465h-0.95601v-3.6897q0-0.59944-0.27388-0.894-0.27388-0.29972-0.91984-0.29972-0.53227 0-0.88366 0.32039-0.3514 0.31523-0.40824 0.85266v3.7104h-0.96118v-3.6638q0-1.2196-1.1937-1.2196-0.94051 0-1.2867 0.80098v4.0824h-0.95601v-5.5914z"/>
   <path d="m12.151 7.9375q-0.08268-0.16536-0.13436-0.58911-0.66662 0.69246-1.5916 0.69246-0.82682 0-1.3591-0.46509-0.5271-0.47025-0.5271-1.1886 0-0.87333 0.66146-1.3539 0.66662-0.48576 1.8707-0.48576h0.93017v-0.43925q0-0.50126-0.29972-0.79581-0.29972-0.29972-0.88366-0.29972-0.5116 0-0.85783 0.25838-0.34623 0.25838-0.34623 0.62528h-0.96118q0-0.41858 0.29455-0.80615 0.29972-0.39274 0.80615-0.62012 0.51159-0.22738 1.1214-0.22738 0.96635 0 1.5141 0.48576 0.54777 0.48059 0.56844 1.3281v2.5735q0 0.76998 0.19637 1.2247v0.082682zm-1.5865-0.72864q0.44958 0 0.85266-0.23254 0.40308-0.23254 0.58394-0.60461v-1.1472h-0.74931q-1.757 0-1.757 1.0284 0 0.44958 0.29972 0.7028 0.29972 0.25321 0.76998 0.25321z"/>
   <path d="m13.646 5.0953q0-1.3074 0.60461-2.0774 0.60461-0.77514 1.602-0.77514 1.0232 0 1.5968 0.72347l0.04651-0.62012h0.87333v5.457q0 1.0852-0.64595 1.7105-0.64078 0.62528-1.726 0.62528-0.60461 0-1.1834-0.25838-0.57878-0.25838-0.88366-0.70796l0.49609-0.57361q0.61495 0.75964 1.5038 0.75964 0.69763 0 1.0852-0.39274 0.39274-0.39274 0.39274-1.1059v-0.48059q-0.57361 0.66146-1.5658 0.66146-0.98185 0-1.5916-0.79065-0.60461-0.79065-0.60461-2.1549zm0.96118 0.10852q0 0.94568 0.38757 1.4883 0.38757 0.53743 1.0852 0.53743 0.90434 0 1.3281-0.82165v-2.5528q-0.43925-0.80098-1.3177-0.80098-0.69763 0-1.0904 0.5426t-0.39274 1.6071z"/>
   <path d="m20.268 7.9375h-0.95601v-5.5914h0.95601zm-1.0335-7.0745q0-0.23254 0.13953-0.39274 0.14469-0.1602 0.42375-0.1602 0.27905 0 0.42374 0.1602 0.14469 0.1602 0.14469 0.39274 0 0.23254-0.14469 0.38757-0.14469 0.15503-0.42374 0.15503-0.27905 0-0.42375-0.15503-0.13953-0.15503-0.13953-0.38757z"/>
   <path d="m23.458 7.2605q0.5116 0 0.894-0.31006t0.42374-0.77514h0.90434q-0.02584 0.48059-0.33073 0.91467-0.30489 0.43408-0.81648 0.69246-0.50643 0.25838-1.0749 0.25838-1.142 0-1.819-0.75964-0.67179-0.76481-0.67179-2.0877v-0.1602q0-0.81649 0.29972-1.4521 0.29972-0.63562 0.85783-0.98702 0.56327-0.3514 1.3281-0.3514 0.94051 0 1.5606 0.56327 0.62528 0.56327 0.66662 1.4624h-0.90434q-0.041341-0.5426-0.41341-0.88883-0.3669-0.3514-0.9095-0.3514-0.72864 0-1.1317 0.5271-0.39791 0.52193-0.39791 1.5141v0.18087q0 0.96635 0.39791 1.4883 0.39791 0.52193 1.1369 0.52193z"/>
   <path d="m29.625 7.9375q-0.08268-0.16536-0.13436-0.58911-0.66662 0.69246-1.5916 0.69246-0.82682 0-1.3591-0.46509-0.5271-0.47025-0.5271-1.1886 0-0.87333 0.66146-1.3539 0.66662-0.48576 1.8707-0.48576h0.93017v-0.43925q0-0.50126-0.29972-0.79581-0.29972-0.29972-0.88366-0.29972-0.5116 0-0.85783 0.25838-0.34623 0.25838-0.34623 0.62528h-0.96118q0-0.41858 0.29456-0.80615 0.29972-0.39274 0.80615-0.62012 0.5116-0.22738 1.1214-0.22738 0.96635 0 1.5141 0.48576 0.54777 0.48059 0.56844 1.3281v2.5735q0 0.76998 0.19637 1.2247v0.082682zm-1.5865-0.72864q0.44958 0 0.85266-0.23254 0.40308-0.23254 0.58394-0.60461v-1.1472h-0.74931q-1.757 0-1.757 1.0284 0 0.44958 0.29972 0.7028 0.29972 0.25321 0.76998 0.25321z"/>
   <path d="m32.386 7.9375h-0.95601v-7.9375h0.95601z"/>
  </g>
 </g>
</svg>
